# Blender v2.83.0 OBJ File: 'nesq.blend'
# www.blender.org
mtllib nesq_e.mtl
o Circle.001
v -0.000000 -0.108589 -0.031297
v -0.000000 -0.071267 -0.072868
v -0.000000 -0.017949 -0.108835
v -0.000000 0.040799 -0.134279
v -0.000000 0.096403 -0.141054
v -0.000000 0.144493 -0.139550
v -0.000000 0.183816 -0.123585
v -0.000000 0.213001 -0.093070
v -0.000000 0.230999 -0.052585
v -0.000000 0.237200 -0.007941
v -0.000000 0.231372 0.039093
v -0.000000 0.213666 0.086491
v -0.000000 0.184569 0.131851
v -0.000000 0.144859 0.172412
v -0.000000 0.095715 0.205569
v -0.000000 0.039171 0.230486
v 0.000000 -0.022223 0.247338
v 0.000000 -0.085682 0.256755
v 0.000000 -0.148384 0.259522
v 0.000000 -0.207962 0.255408
v 0.000000 -0.262712 0.242811
v 0.000000 -0.310554 0.222146
v 0.000000 -0.349649 0.194205
v 0.000000 -0.378513 0.160033
v 0.000000 -0.396320 0.120429
v 0.000000 -0.402617 0.076502
v 0.000000 -0.397294 0.029699
v 0.000000 -0.380574 -0.018212
v 0.000000 -0.352909 -0.064095
v 0.000000 -0.313689 -0.103888
v 0.000000 -0.258594 -0.152626
v 0.000000 -0.157272 -0.155402
v -0.000000 -0.129775 0.003256
v -0.000000 -0.148927 0.040299
v -0.000000 -0.155285 0.068898
v -0.000000 -0.195084 0.065044
v -0.000000 -0.223659 0.056829
v -0.000000 -0.251163 0.041827
v -0.000000 -0.270332 0.016824
v -0.000000 -0.270332 -0.022348
v -0.000000 -0.256163 -0.054852
v -0.000000 -0.232827 -0.083190
v -0.000000 -0.003549 -0.006202
v -0.000000 -0.022480 0.007092
v -0.000000 0.051932 -0.029155
v -0.000000 0.020756 -0.019713
v -0.000000 0.084222 -0.032776
v -0.000000 0.111501 -0.032762
v -0.000000 0.126743 -0.030468
v -0.000000 0.135614 -0.026373
v -0.000000 0.143207 -0.017047
v -0.000000 0.145787 -0.002766
v -0.000000 0.141675 0.013092
v -0.000000 0.130602 0.029305
v -0.000000 0.112894 0.044959
v -0.000000 0.089441 0.058994
v -0.000000 0.061637 0.070311
v -0.000000 0.030741 0.078195
v -0.000000 -0.002573 0.082735
v -0.000000 -0.037549 0.084205
v -0.000000 -0.074476 0.082779
v -0.000000 -0.042984 0.023573
v -0.000000 -0.057782 0.045024
v 0.062534 -0.108589 -0.031297
v 0.062534 -0.071267 -0.072868
v 0.062534 -0.017949 -0.108835
v 0.062534 0.040799 -0.134279
v 0.062534 0.096403 -0.141054
v 0.062534 0.144493 -0.139550
v 0.062534 0.183816 -0.123585
v 0.062534 0.213001 -0.093070
v 0.062534 0.230999 -0.052585
v 0.062534 0.237200 -0.007941
v 0.062534 0.231372 0.039093
v 0.062534 0.213666 0.086491
v 0.062534 0.184569 0.131851
v 0.062534 0.144859 0.172412
v 0.062534 0.095715 0.205569
v 0.062534 0.039171 0.230486
v 0.062534 -0.022223 0.247338
v 0.062534 -0.085682 0.256755
v 0.062534 -0.148384 0.259522
v 0.062534 -0.207962 0.255408
v 0.062534 -0.262712 0.242811
v 0.062534 -0.310554 0.222146
v 0.062534 -0.349649 0.194205
v 0.062534 -0.378513 0.160033
v 0.062534 -0.396320 0.120429
v 0.062534 -0.402617 0.076502
v 0.062534 -0.397294 0.029699
v 0.062534 -0.380574 -0.018212
v 0.062534 -0.352909 -0.064095
v 0.062534 -0.313689 -0.103888
v 0.062534 -0.258594 -0.152626
v 0.062534 -0.157272 -0.155402
v 0.062534 -0.129775 0.003256
v 0.062534 -0.148927 0.040299
v 0.062534 -0.155285 0.068898
v 0.062534 -0.195084 0.065044
v 0.062534 -0.223659 0.056829
v 0.062534 -0.251163 0.041827
v 0.062534 -0.270332 0.016824
v 0.062534 -0.270332 -0.022348
v 0.062534 -0.256163 -0.054852
v 0.062534 -0.232827 -0.083190
v 0.062534 -0.003549 -0.006202
v 0.062534 -0.022480 0.007092
v 0.062534 0.051932 -0.029155
v 0.062534 0.020756 -0.019713
v 0.062534 0.084222 -0.032776
v 0.062534 0.111501 -0.032762
v 0.062534 0.126743 -0.030468
v 0.062534 0.135614 -0.026373
v 0.062534 0.143207 -0.017047
v 0.062534 0.145787 -0.002766
v 0.062534 0.141675 0.013092
v 0.062534 0.130602 0.029305
v 0.062534 0.112894 0.044959
v 0.062534 0.089441 0.058994
v 0.062534 0.061637 0.070311
v 0.062534 0.030741 0.078195
v 0.062534 -0.002573 0.082735
v 0.062534 -0.037549 0.084205
v 0.062534 -0.074476 0.082779
v 0.062534 -0.042984 0.023573
v 0.062534 -0.057782 0.045024
vt 0.000000 0.000000
vt 0.000000 0.000000
vt 0.000000 0.000000
vt 0.000000 0.000000
vt 0.000000 0.000000
vt 0.000000 0.000000
vt 0.000000 0.000000
vt 0.000000 0.000000
vt 0.000000 0.000000
vt 0.000000 0.000000
vt 0.000000 0.000000
vt 0.000000 0.000000
vt 0.000000 0.000000
vt 0.000000 0.000000
vt 0.000000 0.000000
vt 0.000000 0.000000
vt 0.000000 0.000000
vt 0.000000 0.000000
vt 0.000000 0.000000
vt 0.000000 0.000000
vt 0.000000 0.000000
vt 0.000000 0.000000
vt 0.000000 0.000000
vt 0.000000 0.000000
vt 0.000000 0.000000
vt 0.000000 0.000000
vt 0.000000 0.000000
vt 0.000000 0.000000
vt 0.000000 0.000000
vt 0.000000 0.000000
vt 0.000000 0.000000
vt 0.000000 0.000000
vt 0.000000 0.000000
vt 0.000000 0.000000
vt 0.000000 0.000000
vt 0.000000 0.000000
vt 0.000000 0.000000
vt 0.000000 0.000000
vt 0.000000 0.000000
vt 0.000000 0.000000
vt 0.000000 0.000000
vt 0.000000 0.000000
vt 0.000000 0.000000
vt 0.000000 0.000000
vt 0.000000 0.000000
vt 0.000000 0.000000
vt 0.000000 0.000000
vt 0.000000 0.000000
vt 0.000000 0.000000
vt 0.000000 0.000000
vt 0.000000 0.000000
vt 0.000000 0.000000
vt 0.000000 0.000000
vt 0.000000 0.000000
vt 0.000000 0.000000
vt 0.000000 0.000000
vt 0.000000 0.000000
vt 0.000000 0.000000
vt 0.000000 0.000000
vt 0.000000 0.000000
vt 0.000000 0.000000
vt 0.000000 0.000000
vt 0.000000 0.000000
vt 0.000000 0.000000
vt 0.000000 0.000000
vt 0.000000 0.000000
vt 0.000000 0.000000
vt 0.000000 0.000000
vt 0.000000 0.000000
vt 0.000000 0.000000
vt 0.000000 0.000000
vt 0.000000 0.000000
vt 0.000000 0.000000
vt 0.000000 0.000000
vt 0.000000 0.000000
vt 0.000000 0.000000
vt 0.000000 0.000000
vt 0.000000 0.000000
vt 0.000000 0.000000
vt 0.000000 0.000000
vt 0.000000 0.000000
vt 0.000000 0.000000
vt 0.000000 0.000000
vt 0.000000 0.000000
vt 0.000000 0.000000
vt 0.000000 0.000000
vt 0.000000 0.000000
vt 0.000000 0.000000
vt 0.000000 0.000000
vt 0.000000 0.000000
vt 0.000000 0.000000
vt 0.000000 0.000000
vt 0.000000 0.000000
vt 0.000000 0.000000
vt 0.000000 0.000000
vt 0.000000 0.000000
vt 0.000000 0.000000
vt 0.000000 0.000000
vt 0.000000 0.000000
vt 0.000000 0.000000
vt 0.000000 0.000000
vt 0.000000 0.000000
vt 0.000000 0.000000
vt 0.000000 0.000000
vt 0.000000 0.000000
vt 0.000000 0.000000
vt 0.000000 0.000000
vt 0.000000 0.000000
vt 0.000000 0.000000
vt 0.000000 0.000000
vt 0.000000 0.000000
vt 0.000000 0.000000
vt 0.000000 0.000000
vt 0.000000 0.000000
vt 0.000000 0.000000
vt 0.000000 0.000000
vt 0.000000 0.000000
vt 0.000000 0.000000
vt 0.000000 0.000000
vt 0.000000 0.000000
vt 0.000000 0.000000
vt 0.000000 0.000000
vt 0.000000 0.000000
vt 0.000000 0.000000
vt 0.000000 0.000000
vt 0.000000 0.000000
vn -1.0000 -0.0000 0.0000
vn 1.0000 0.0000 -0.0000
vn -0.0000 -0.1350 -0.9908
vn 0.0000 -0.0420 -0.9991
vn 0.0000 -0.8525 -0.5227
vn 0.0000 0.0386 -0.9993
vn 0.0000 -0.5592 -0.8290
vn 0.0000 -0.0689 0.9976
vn 0.0000 -0.3974 -0.9176
vn 0.0000 -0.2242 0.9745
vn 0.0000 -0.1210 -0.9927
vn 0.0000 -0.3965 0.9180
vn 0.0000 0.0313 -0.9995
vn 0.0000 -0.5814 0.8136
vn 0.0000 0.3762 -0.9266
vn 0.0000 -0.7640 0.6453
vn 0.0000 0.7227 -0.6912
vn 0.0000 -0.9120 0.4101
vn 0.0000 0.9138 -0.4062
vn 0.0000 -0.9899 0.1419
vn 0.0000 0.9905 -0.1376
vn 0.0000 -0.9936 -0.1130
vn 0.0000 0.9924 0.1230
vn 0.0000 -0.9442 -0.3295
vn 0.0000 0.9368 0.3499
vn 0.0000 -0.8564 -0.5163
vn -0.0000 0.5747 0.8184
vn 0.0000 0.8417 0.5399
vn 0.0000 -0.7122 -0.7020
vn 0.0000 0.2898 0.9571
vn 0.0000 0.7146 0.6996
vn 0.0000 -0.6626 -0.7490
vn 0.0000 0.1114 0.9938
vn 0.0000 0.5593 0.8290
vn 0.0000 -0.0274 -0.9996
vn 0.0000 -0.0005 1.0000
vn 0.0000 0.4033 0.9151
vn 0.0000 0.4859 0.8740
vn 0.0000 -0.1488 0.9889
vn 0.0000 0.2647 0.9643
vn 0.0000 0.6265 0.7794
vn 0.0000 -0.4192 0.9079
vn -0.0000 0.9146 0.4044
vn 0.0000 0.1468 0.9892
vn -0.0000 0.8231 0.5678
vn 0.0000 -0.7755 0.6314
vn 0.0000 0.0441 0.9990
vn 0.0000 0.0964 -0.9953
vn 0.0000 -0.9841 0.1778
vn 0.0000 -0.7441 -0.6681
vn 0.0000 0.2763 -0.9611
vn 0.0000 -0.9680 -0.2510
vn 0.0000 -0.8883 -0.4593
vn 0.0000 0.4789 -0.8779
vn 0.0000 -0.8258 -0.5640
vn 0.0000 -0.9762 -0.2170
vn 0.0000 0.7936 -0.6084
vn 0.0000 -0.6623 -0.7492
vn 0.0000 1.0000 0.0000
vn 0.0000 -0.5135 -0.8581
vn 0.0000 0.9167 0.3996
vn 0.0000 -0.3770 -0.9262
vn 0.0000 0.7719 0.6357
vn -0.0000 -0.2473 -0.9689
vn 0.0000 0.6909 0.7229
usemtl None
s off
f 20/1/1 19/2/1 35/3/1 36/4/1 37/5/1 38/6/1 39/7/1 40/8/1 41/9/1 42/10/1 32/11/1 31/12/1 30/13/1 29/14/1 28/15/1 27/16/1 26/17/1 25/18/1 24/19/1 23/20/1 22/21/1 21/22/1
f 44/23/1 43/24/1 1/25/1 33/26/1
f 46/27/1 45/28/1 3/29/1 2/30/1
f 45/28/1 47/31/1 4/32/1 3/29/1
f 47/31/1 48/33/1 5/34/1 4/32/1
f 48/33/1 49/35/1 6/36/1 5/34/1
f 49/35/1 50/37/1 7/38/1 6/36/1
f 50/37/1 51/39/1 8/40/1 7/38/1
f 51/39/1 52/41/1 9/42/1 8/40/1
f 52/41/1 53/43/1 10/44/1 9/42/1
f 53/43/1 54/45/1 11/46/1 10/44/1
f 54/45/1 55/47/1 12/48/1 11/46/1
f 55/47/1 56/49/1 13/50/1 12/48/1
f 56/49/1 57/51/1 14/52/1 13/50/1
f 57/51/1 58/53/1 15/54/1 14/52/1
f 58/53/1 59/55/1 16/56/1 15/54/1
f 59/55/1 60/57/1 17/58/1 16/56/1
f 60/57/1 61/59/1 18/60/1 17/58/1
f 61/59/1 19/2/1 18/60/1
f 43/24/1 46/27/1 2/30/1 1/25/1
f 62/61/1 44/23/1 33/26/1 34/62/1
f 63/63/1 62/61/1 34/62/1 35/3/1
f 61/59/1 63/63/1 35/3/1 19/2/1
f 83/64/2 84/65/2 85/66/2 86/67/2 87/68/2 88/69/2 89/70/2 90/71/2 91/72/2 92/73/2 93/74/2 94/75/2 95/76/2 105/77/2 104/78/2 103/79/2 102/80/2 101/81/2 100/82/2 99/83/2 98/84/2 82/85/2
f 107/86/2 96/87/2 64/88/2 106/89/2
f 109/90/2 65/91/2 66/92/2 108/93/2
f 108/93/2 66/92/2 67/94/2 110/95/2
f 110/95/2 67/94/2 68/96/2 111/97/2
f 111/97/2 68/96/2 69/98/2 112/99/2
f 112/99/2 69/98/2 70/100/2 113/101/2
f 113/101/2 70/100/2 71/102/2 114/103/2
f 114/103/2 71/102/2 72/104/2 115/105/2
f 115/105/2 72/104/2 73/106/2 116/107/2
f 116/107/2 73/106/2 74/108/2 117/109/2
f 117/109/2 74/108/2 75/110/2 118/111/2
f 118/111/2 75/110/2 76/112/2 119/113/2
f 119/113/2 76/112/2 77/114/2 120/115/2
f 120/115/2 77/114/2 78/116/2 121/117/2
f 121/117/2 78/116/2 79/118/2 122/119/2
f 122/119/2 79/118/2 80/120/2 123/121/2
f 123/121/2 80/120/2 81/122/2 124/123/2
f 124/123/2 81/122/2 82/85/2
f 106/89/2 64/88/2 65/91/2 109/90/2
f 125/124/2 97/125/2 96/87/2 107/86/2
f 126/126/2 98/84/2 97/125/2 125/124/2
f 124/123/2 82/85/2 98/84/2 126/126/2
f 58/53/3 121/117/3 122/119/3 59/55/3
f 59/55/4 122/119/4 123/121/4 60/57/4
f 1/25/5 64/88/5 96/87/5 33/26/5
f 60/57/6 123/121/6 124/123/6 61/59/6
f 3/29/7 66/92/7 65/91/7 2/30/7
f 20/1/8 83/64/8 82/85/8 19/2/8
f 4/32/9 67/94/9 66/92/9 3/29/9
f 21/22/10 84/65/10 83/64/10 20/1/10
f 5/34/11 68/96/11 67/94/11 4/32/11
f 22/21/12 85/66/12 84/65/12 21/22/12
f 6/36/13 69/98/13 68/96/13 5/34/13
f 23/20/14 86/67/14 85/66/14 22/21/14
f 7/38/15 70/100/15 69/98/15 6/36/15
f 24/19/16 87/68/16 86/67/16 23/20/16
f 8/40/17 71/102/17 70/100/17 7/38/17
f 25/18/18 88/69/18 87/68/18 24/19/18
f 9/42/19 72/104/19 71/102/19 8/40/19
f 26/17/20 89/70/20 88/69/20 25/18/20
f 10/44/21 73/106/21 72/104/21 9/42/21
f 27/16/22 90/71/22 89/70/22 26/17/22
f 11/46/23 74/108/23 73/106/23 10/44/23
f 28/15/24 91/72/24 90/71/24 27/16/24
f 12/48/25 75/110/25 74/108/25 11/46/25
f 29/14/26 92/73/26 91/72/26 28/15/26
f 44/23/27 107/86/27 106/89/27 43/24/27
f 13/50/28 76/112/28 75/110/28 12/48/28
f 30/13/29 93/74/29 92/73/29 29/14/29
f 46/27/30 109/90/30 108/93/30 45/28/30
f 14/52/31 77/114/31 76/112/31 13/50/31
f 31/12/32 94/75/32 93/74/32 30/13/32
f 45/28/33 108/93/33 110/95/33 47/31/33
f 15/54/34 78/116/34 77/114/34 14/52/34
f 32/11/35 95/76/35 94/75/35 31/12/35
f 47/31/36 110/95/36 111/97/36 48/33/36
f 16/56/37 79/118/37 78/116/37 15/54/37
f 43/24/38 106/89/38 109/90/38 46/27/38
f 48/33/39 111/97/39 112/99/39 49/35/39
f 17/58/40 80/120/40 79/118/40 16/56/40
f 62/61/41 125/124/41 107/86/41 44/23/41
f 49/35/42 112/99/42 113/101/42 50/37/42
f 61/59/43 124/123/43 126/126/43 63/63/43
f 18/60/44 81/122/44 80/120/44 17/58/44
f 63/63/45 126/126/45 125/124/45 62/61/45
f 50/37/46 113/101/46 114/103/46 51/39/46
f 19/2/47 82/85/47 81/122/47 18/60/47
f 35/3/48 98/84/48 99/83/48 36/4/48
f 51/39/49 114/103/49 115/105/49 52/41/49
f 2/30/50 65/91/50 64/88/50 1/25/50
f 36/4/51 99/83/51 100/82/51 37/5/51
f 52/41/52 115/105/52 116/107/52 53/43/52
f 33/26/53 96/87/53 97/125/53 34/62/53
f 37/5/54 100/82/54 101/81/54 38/6/54
f 53/43/55 116/107/55 117/109/55 54/45/55
f 34/62/56 97/125/56 98/84/56 35/3/56
f 38/6/57 101/81/57 102/80/57 39/7/57
f 54/45/58 117/109/58 118/111/58 55/47/58
f 39/7/59 102/80/59 103/79/59 40/8/59
f 55/47/60 118/111/60 119/113/60 56/49/60
f 40/8/61 103/79/61 104/78/61 41/9/61
f 56/49/62 119/113/62 120/115/62 57/51/62
f 41/9/63 104/78/63 105/77/63 42/10/63
f 57/51/64 120/115/64 121/117/64 58/53/64
f 42/10/65 105/77/65 95/76/65 32/11/65
