# Blender v2.83.0 OBJ File: 'nesq.blend'
# www.blender.org
mtllib nesq_front.mtl
o nesq
v -1.120983 5.722998 2.135231
v -1.120983 0.029049 2.135231
v -1.120983 5.722998 -2.135231
v -1.120983 0.029049 -2.135231
v -1.120983 5.722998 1.716541
v -1.120983 0.029049 1.716541
v -1.120983 0.029049 -1.947563
v -1.120983 5.722998 -1.947563
vt 0.000000 0.956055
vt 1.000000 0.956055
vt 1.000000 1.000000
vt 0.000000 1.000000
vt 0.000000 0.000000
vt 1.000000 0.000000
vt 1.000000 0.098043
vt 0.000000 0.098043
vn 1.0000 0.0000 0.0000
usemtl nesq
s off
f 8/1/1 7/2/1 4/3/1 3/4/1
f 1/5/1 2/6/1 6/7/1 5/8/1
f 5/8/1 6/7/1 7/2/1 8/1/1
