# Blender v2.83.0 OBJ File: 'nesq.blend'
# www.blender.org
mtllib nesq_vitamin_icon.mtl
o nesq.003
v 0.000000 -0.128883 0.000581
v 0.000000 -0.372714 0.000581
v -0.000000 -0.128883 0.485553
v 0.000000 -0.128883 -0.490957
v -0.000000 0.423256 0.000581
v -0.000000 0.420378 0.059501
v -0.000000 0.414620 -0.097391
v -0.000000 0.382954 -0.193828
v -0.000000 0.339773 -0.277311
v -0.000000 0.286516 -0.344962
v 0.000000 0.217427 -0.399658
v 0.000000 0.126747 -0.452914
v 0.000000 0.038946 -0.481702
v 0.000000 -0.069007 -0.493216
v -0.000000 0.393030 0.173211
v -0.000000 0.341213 0.269648
v -0.000000 0.296592 0.325783
v -0.000000 0.233260 0.391994
v -0.000000 0.159852 0.435175
v -0.000000 0.086445 0.471159
v -0.000000 0.010158 0.484114
v -0.000000 -0.045977 0.492750
v 0.000000 -0.145293 -0.490338
v 0.000000 -0.247489 -0.455793
v 0.000000 -0.320897 -0.422688
v -0.000000 -0.223019 0.468281
v 0.000000 -0.286351 0.442372
v 0.000000 -0.323775 0.420782
vt 0.589952 0.252878
vt 0.606485 0.256923
vt 0.617607 0.262990
vt 0.624180 0.268046
vt 0.632775 0.366443
vt 0.589952 0.366443
vt 0.623674 0.465558
vt 0.610782 0.473310
vt 0.592834 0.481400
vt 0.589952 0.481545
vt 0.492983 0.366443
vt 0.493488 0.352646
vt 0.498291 0.326019
vt 0.507391 0.303436
vt 0.515228 0.290291
vt 0.526351 0.274787
vt 0.539243 0.264675
vt 0.552135 0.256249
vt 0.565533 0.253215
vt 0.575392 0.251193
vt 0.579436 0.482074
vt 0.560477 0.479377
vt 0.545057 0.472636
vt 0.529131 0.460165
vt 0.516998 0.447357
vt 0.507644 0.431516
vt 0.500061 0.411967
vt 0.494499 0.389384
vn 1.0000 0.0000 0.0000
usemtl nesq
s off
f 3/1/1 26/2/1 27/3/1 28/4/1 2/5/1 1/6/1
f 1/6/1 2/5/1 25/7/1 24/8/1 23/9/1 4/10/1
f 5/11/1 6/12/1 15/13/1 16/14/1 17/15/1 18/16/1 19/17/1 20/18/1 21/19/1 22/20/1 3/1/1 1/6/1
f 4/10/1 14/21/1 13/22/1 12/23/1 11/24/1 10/25/1 9/26/1 8/27/1 7/28/1 5/11/1 1/6/1
